HIERARCHY
ROOT RootJoint
{
    OFFSET   0.000000   0.000000   0.000000
    CHANNELS 6 Xposition Yposition Zposition Xrotation Yrotation Zrotation
    JOINT pelvis_lowerback
    {
        OFFSET   0.000000   0.093605   0.000000
        CHANNELS 3 Xrotation Yrotation Zrotation
        JOINT lowerback_torso
        {
            OFFSET   0.000000   0.100000   0.000000
            CHANNELS 3 Xrotation Yrotation Zrotation
            JOINT torso_head
            {
                OFFSET   0.000000   0.282350   0.000000
                CHANNELS 3 Xrotation Yrotation Zrotation
                End Site
                {
                    OFFSET   0.000000   0.192650   0.000000
                }
            }
            JOINT rTorso_Clavicle
            {
                OFFSET  -0.001000   0.157500   0.000000
                CHANNELS 3 Xrotation Yrotation Zrotation
                JOINT rShoulder
                {
                    OFFSET  -0.117647   0.000000   0.000000
                    CHANNELS 3 Xrotation Yrotation Zrotation
                    JOINT rElbow
                    {
                        OFFSET  -0.245000   0.000000   0.000000
                        CHANNELS 3 Xrotation Yrotation Zrotation
                        JOINT rWrist
                        {
                            OFFSET  -0.240000   0.000000   0.000000
                            CHANNELS 3 Xrotation Yrotation Zrotation
                            End Site
                            {
                                OFFSET  -0.116353  -0.002500   0.000000
                            }
                        }
                    }
                }
            }
            JOINT lTorso_Clavicle
            {
                OFFSET   0.001000   0.157500   0.000000
                CHANNELS 3 Xrotation Yrotation Zrotation
                JOINT lShoulder
                {
                    OFFSET   0.117647   0.000000   0.000000
                    CHANNELS 3 Xrotation Yrotation Zrotation
                    JOINT lElbow
                    {
                        OFFSET   0.245000   0.000000   0.000000
                        CHANNELS 3 Xrotation Yrotation Zrotation
                        JOINT lWrist
                        {
                            OFFSET   0.240000   0.000000   0.000000
                            CHANNELS 3 Xrotation Yrotation Zrotation
                            End Site
                            {
                                OFFSET   0.116353  -0.002500   0.000000
                            }
                        }
                    }
                }
            }
        }
    }
    JOINT rHip
    {
        OFFSET  -0.100000  -0.051395   0.000000
        CHANNELS 3 Xrotation Yrotation Zrotation
        JOINT rKnee
        {
            OFFSET   0.000000  -0.410000   0.000000
            CHANNELS 3 Xrotation Yrotation Zrotation
            JOINT rAnkle
            {
                OFFSET   0.000000  -0.390000   0.000000
                CHANNELS 3 Xrotation Yrotation Zrotation
                JOINT rToeJoint
                {
                    OFFSET   0.000000  -0.050000   0.130000
                    CHANNELS 3 Xrotation Yrotation Zrotation
                    End Site
                    {
                        OFFSET  -0.010000   0.002000   0.060000
                    }
                }
            }
        }
    }
    JOINT lHip
    {
        OFFSET   0.100000  -0.051395   0.000000
        CHANNELS 3 Xrotation Yrotation Zrotation
        JOINT lKnee
        {
            OFFSET   0.000000  -0.410000   0.000000
            CHANNELS 3 Xrotation Yrotation Zrotation
            JOINT lAnkle
            {
                OFFSET   0.000000  -0.390000   0.000000
                CHANNELS 3 Xrotation Yrotation Zrotation
                JOINT lToeJoint
                {
                    OFFSET   0.000000  -0.050000   0.130000
                    CHANNELS 3 Xrotation Yrotation Zrotation
                    End Site
                    {
                        OFFSET   0.010000   0.002000   0.060000
                    }
                }
            }
        }
    }
}
MOTION
Frames: 7
Frame Time:   0.008333
 -2.376719   0.925631   3.975860   0.000000   0.000000   0.000000   0.000000   0.000000   0.000000   0.000000   0.000000   0.000000   0.000000   0.000000   0.000000   0.000000   0.000000   0.000000   0.000000   0.000000   0.000000   0.000000   0.000000   0.000000   0.000000   0.000000   0.000000   0.000000   0.000000   0.000000   0.000000   0.000000   0.000000   0.000000   0.000000   0.000000   0.000000   0.000000   0.000000   0.000000   0.000000   0.000000   0.000000   0.000000   0.000000   0.000000   0.000000   0.000000   0.000000   0.000000   0.000000   0.000000   0.000000   0.000000   0.000000   0.000000   0.000000   0.000000   0.000000   0.000000   0.000000   0.000000   0.000000
 -2.376416   0.926176   3.974824   1.161223   0.051695   0.270050  -1.201119   0.137594  -0.315867  -0.026962  -0.220849   0.002077  -0.122593   0.141696  -0.049595   0.183312  -0.544734   0.385736   0.428100   0.113561   2.121712   0.015640   0.725319  -0.003470   0.170747   0.099601  -2.930750   0.339565   0.345214  -0.212448   0.882494   0.182872  -2.113965   0.010882  -0.525208   0.005300   0.156888  -0.344924   2.728533  -2.042640  -0.412125  -0.472508   2.095099   0.003494  -0.006859  -1.688431  -0.162789   0.183265  -0.053420  -0.000009   0.000247  -2.282878   0.054709  -0.227588   2.965765  -0.001058   0.002514  -1.699781   0.631581  -0.213599  -0.234862  -0.000341  -0.001491
 -2.376014   0.927054   3.974369   2.223583   0.040253   0.556209  -2.351222   0.302431  -0.621766  -0.073678  -0.423595  -0.009373  -0.235349   0.279327  -0.111036   0.366560  -1.158965   1.494340   0.846603   0.171147   4.825855   0.034922   1.399868  -0.005304   0.374731   0.331678  -5.134748   0.673225   0.774225  -1.124237   1.763487   0.417003  -4.792350   0.023724  -0.997087   0.008575   0.365445  -0.722554   4.742874  -3.949057  -0.794478  -1.095614   4.229571   0.008226  -0.013902  -3.261499  -0.328031   0.347326  -0.149015  -0.000146   0.000690  -4.364936   0.125554  -0.384084   6.030327  -0.004052   0.003120  -3.272815   1.235505  -0.394042  -0.477448  -0.000356  -0.002545
 -2.375559   0.927868   3.974410   3.220500  -0.008365   0.826863  -3.481018   0.466212  -0.893941  -0.150368  -0.607882  -0.014111  -0.336926   0.408166  -0.171915   0.555954  -1.796487   3.038397   1.259495   0.191258   7.906643   0.052744   2.010562  -0.005775   0.571190   0.497474  -6.498294   0.997112   1.240113  -2.471245   2.646109   0.665109  -7.843874   0.035233  -1.415861   0.010265   0.566860  -1.002556   5.946369  -5.715468  -1.130338  -1.803304   6.251700   0.012966  -0.019784  -4.727599  -0.489105   0.494700  -0.236793  -0.000331   0.001012  -6.233853   0.191901  -0.444737   8.954930  -0.008262   0.002712  -4.735857   1.805085  -0.545739  -0.695716  -0.000138  -0.003097
 -2.375074   0.928339   3.974805   4.163946  -0.078154   1.079474  -4.585819   0.621056  -1.133050  -0.258199  -0.781140  -0.008467  -0.432178   0.528452  -0.229155   0.758456  -2.440512   4.826101   1.672547   0.188804  11.240008   0.067208   2.563750  -0.005402   0.748877   0.573877  -7.236399   1.315898   1.718983  -4.066060   3.537030   0.902088 -11.148033   0.044347  -1.791132   0.010961   0.751186  -1.191894   6.548197  -7.363830  -1.420232  -2.569107   8.147780   0.017230  -0.024337  -6.095865  -0.644610   0.627056  -0.322407  -0.000541   0.001252  -7.923190   0.249864  -0.420285  11.713843  -0.012938   0.002159  -6.099821   2.341402  -0.672514  -0.900247   0.000202  -0.003362
 -2.374611   0.928251   3.975433   5.054944  -0.159128   1.317920  -5.657393   0.765764  -1.348088  -0.388965  -0.945377  -0.004965  -0.522229   0.640468  -0.278772   0.978485  -3.081725   6.737222   2.089606   0.173762  14.746353   0.077784   3.065369  -0.004585   0.905446   0.568872  -7.542875   1.633359   2.200325  -5.823440   4.401808   1.104562 -14.498288   0.050665  -2.129513   0.010970   0.918152  -1.310477   6.679366  -8.907145  -1.666273  -3.374466   9.922041   0.020754  -0.027629  -7.373189  -0.793859   0.745819  -0.406260  -0.000754   0.001421  -9.457672   0.297805  -0.324398  14.309729  -0.017590   0.001861  -7.372207   2.845710  -0.777847  -1.092783   0.000597  -0.003441
 -2.374213   0.927442   3.976197   5.892824  -0.245254   1.544744  -6.688721   0.900408  -1.547447  -0.533642  -1.101628  -0.010056  -0.607396   0.744795  -0.322242   1.217877  -3.711252   8.690551   2.512663   0.155525  18.370581   0.084664   3.521181  -0.003602   1.042556   0.496966  -7.563451   1.950852   2.674276  -7.662096   5.223723   1.263945 -17.772663   0.054371  -2.437033   0.010564   1.069604  -1.379633   6.481278 -10.354773  -1.871317  -4.203100  11.581206   0.023439  -0.029807  -8.565666  -0.936388   0.852379  -0.487520  -0.000948   0.001526 -10.856787   0.334820  -0.168609  16.749607  -0.021881   0.001936  -8.559512   3.319386  -0.864725  -1.273637   0.001001  -0.003397
